<svg width="512" height="512" viewBox="0 0 512 512" fill="none" xmlns="http://www.w3.org/2000/svg">
<g clip-path="url(#clip0_51_2)">
<path d="M407.936 392.405L491.541 308.8C505.117 294.574 512.692 275.665 512.692 256C512.692 236.335 505.117 217.426 491.541 203.2L407.936 119.595C401.936 113.592 393.797 110.218 385.309 110.216C376.821 110.214 368.68 113.584 362.677 119.584C356.674 125.584 353.301 133.723 353.299 142.211C353.297 150.699 356.666 158.84 362.667 164.843L421.973 224.171L32.64 224.661C24.1531 224.661 16.0138 228.033 10.0126 234.034C4.01143 240.035 0.640015 248.174 0.640015 256.661C0.640015 265.148 4.01143 273.288 10.0126 279.289C16.0138 285.29 24.1531 288.661 32.64 288.661L421.568 288.171L362.667 347.157C356.838 353.193 353.612 361.276 353.685 369.666C353.758 378.056 357.123 386.082 363.057 392.016C368.99 397.949 377.016 401.314 385.406 401.387C393.796 401.46 401.901 398.234 407.936 392.405Z" fill="#03C988"/>
</g>
<defs>
<clipPath id="clip0_51_2">
<rect width="512" height="512" fill="white"/>
</clipPath>
</defs>
</svg>
