<svg width="30" height="30" viewBox="0 0 30 30" fill="none" xmlns="http://www.w3.org/2000/svg">
<g clip-path="url(#clip0_3_55)">
<path d="M28.7525 26.98H29.0363L28.4925 26.1575C28.825 26.1575 29.0013 25.9462 29.0037 25.6875C29.0037 25.6775 29.0038 25.6662 29.0025 25.6562C29.0025 25.3037 28.79 25.135 28.3538 25.135H27.6488V26.98H27.9138V26.1762H28.24L28.7525 26.98ZM28.2213 25.9675H27.9138V25.3437H28.3038C28.505 25.3437 28.735 25.3762 28.735 25.64C28.735 25.9425 28.5038 25.9675 28.2213 25.9675Z" fill="#1E1E1E" fill-opacity="0.86"/>
<path d="M21.6138 23.8412H17.855V17.955C17.855 16.5512 17.83 14.745 15.9 14.745C13.9425 14.745 13.6425 16.2737 13.6425 17.8537V23.8412H9.885V11.7362H13.4938V13.39H13.5438C14.28 12.1325 15.6475 11.3812 17.1038 11.435C20.9138 11.435 21.615 13.9412 21.615 17.2L21.6138 23.8412ZM5.64375 10.0812C4.43875 10.0812 3.4625 9.105 3.4625 7.9C3.4625 6.695 4.43875 5.71875 5.64375 5.71875C6.84875 5.71875 7.825 6.695 7.825 7.9C7.825 9.105 6.84875 10.0812 5.64375 10.0812ZM7.5225 23.8412H3.76V11.7362H7.5225V23.8412ZM23.4875 2.22875H1.87125C0.85 2.2175 0.0125 3.03625 0 4.0575V25.7625C0.0125 26.785 0.85 27.6037 1.87125 27.5925H23.4875C24.5113 27.605 25.3525 26.7862 25.3663 25.7625V4.05625C25.3513 3.0325 24.51 2.21375 23.4875 2.2275" fill="#1E1E1E" fill-opacity="0.86"/>
<path d="M28.2538 24.3138C27.2988 24.3225 26.5312 25.105 26.5412 26.06C26.55 27.015 27.3325 27.7825 28.2875 27.7725C29.2425 27.7638 30.01 26.9812 30 26.0262C29.9913 25.0837 29.2287 24.3225 28.2875 24.3138H28.2538ZM28.2938 27.5738C27.4563 27.5875 26.7263 26.9213 26.7125 26.0838C26.6988 25.2463 27.3662 24.5563 28.2037 24.5425C29.0412 24.5288 29.7312 25.1963 29.745 26.0338C29.745 26.0425 29.745 26.05 29.745 26.0588C29.7625 26.8775 29.1125 27.5563 28.2938 27.5738H28.255H28.2938Z" fill="#1E1E1E" fill-opacity="0.86"/>
</g>
<defs>
<clipPath id="clip0_3_55">
<rect width="30" height="30" fill="white"/>
</clipPath>
</defs>
</svg>
